<svg width="24" height="24" xmlns="http://www.w3.org/2000/svg">

 <g>
  <title>background</title>
  <rect fill="none" id="canvas_background" height="402" width="582" y="-1" x="-1"/>
 </g>
 <g>
  <title>Layer 1</title>
  <path id="svg_1" d="m0,0l24,0l0,24l-24,0l0,-24z" fill="none"/>
  <path id="svg_2" d="m2,12c0,-5.52 4.48,-10 10,-10s10,4.48 10,10s-4.48,10 -10,10s-10,-4.48 -10,-10zm10,6c3.31,0 6,-2.69 6,-6s-2.69,-6 -6,-6s-6,2.69 -6,6s2.69,6 6,6z"/>
  <path id="svg_3" d="m0,0l24,0l0,24l-24,0l0,-24z" fill="none"/>
  <ellipse stroke="#000" ry="6.374934" rx="6.249936" id="svg_4" cy="12.058238" cx="11.979876" stroke-width="1.5" fill="#fff"/>
 </g>
</svg>